<svg width="58" height="45" viewBox="0 0 58 45" fill="none" xmlns="http://www.w3.org/2000/svg">
<path d="M31.107 12.6465V15.9186H25.4419V44H21.6326V35.893C19.9395 38.3349 17.3349 39.5558 13.8186 39.5558C11.214 39.5558 8.96744 38.7256 7.07907 37.0651C5.22326 35.3721 4.29535 33.093 4.29535 30.2279C4.29535 27.5581 5.1907 25.3442 6.9814 23.586C8.80465 21.7953 11.1326 20.9 13.9651 20.9C15.1698 20.9 16.1954 21.0302 17.0419 21.2907V24.6605C16.2279 24.3674 15.2674 24.2209 14.1605 24.2209C12.4349 24.2209 11.0023 24.7744 9.86279 25.8814C8.72326 26.9558 8.15349 28.3884 8.15349 30.1791C8.15349 32.0674 8.72326 33.5814 9.86279 34.7209C11.0349 35.8605 12.4837 36.4302 14.2093 36.4302C16.4884 36.4302 18.2954 35.6651 19.6302 34.1349C20.9651 32.6047 21.6326 30.7977 21.6326 28.714V15.9186H0.925581V12.6465H31.107ZM10.2153 4.29535V0.974415C11.3874 0.779066 12.2665 0.681392 12.8525 0.681392C14.513 0.681392 15.9293 1.03953 17.1014 1.75581C18.2735 2.43953 19.3479 3.54651 20.3246 5.07674L25.5502 12.9884H21.3502L17.1014 6.54186C15.9944 4.84883 14.513 4.00232 12.6572 4.00232C12.006 4.00232 11.1921 4.1 10.2153 4.29535ZM28.9688 12.6465H57.9781V15.9186H52.1177V24.0744H43.5223C41.3084 24.0744 39.5665 24.6442 38.2967 25.7837C37.027 26.9233 36.3921 28.5186 36.3921 30.5698C36.3921 32.686 36.9618 34.3465 38.1014 35.5512C39.2409 36.7558 40.7712 37.3581 42.6921 37.3581C44.613 37.3581 46.1432 36.8209 47.2828 35.7465C48.4549 34.6721 49.0735 33.2884 49.1386 31.5953H52.8014V44.4884H48.9921V37.993C47.6572 39.686 45.4595 40.5326 42.3991 40.5326C39.3712 40.5326 36.9293 39.5884 35.0735 37.7C33.2177 35.8116 32.2898 33.4837 32.2898 30.7163C32.2898 27.8186 33.2502 25.4581 35.1712 23.6349C37.0921 21.7791 39.7781 20.8512 43.2293 20.8512H48.3084V15.9186H28.9688V12.6465Z" fill="white"/>
</svg>
